<!DOCTYPE svg PUBLIC "-//W3C//DTD SVG 1.1//EN" "http://www.w3.org/Graphics/SVG/1.1/DTD/svg11.dtd">
<!-- Uploaded to: SVG Repo, www.svgrepo.com, Transformed by: SVG Repo Mixer Tools -->
<svg version="1.0" id="Layer_1" xmlns="http://www.w3.org/2000/svg" xmlns:xlink="http://www.w3.org/1999/xlink" width="800px" height="800px" viewBox="0 0 64 64" enable-background="new 0 0 64 64" xml:space="preserve" fill="#1b5eb2" stroke="#1b5eb2">
<g id="SVGRepo_bgCarrier" stroke-width="0"/>
<g id="SVGRepo_tracerCarrier" stroke-linecap="round" stroke-linejoin="round"/>
<g id="SVGRepo_iconCarrier"> <g> <rect x="40" y="48" fill="#1b5eb2" width="4" height="6"/> <rect x="30" y="10" fill="#1b5eb2" width="4" height="28"/> <rect x="30" y="40" fill="#1b5eb2" width="4" height="14"/> <rect x="10" y="26" fill="#1b5eb2" width="4" height="20"/> <rect x="20" y="18" fill="#1b5eb2" width="4" height="24"/> <rect x="20" y="44" fill="#1b5eb2" width="4" height="10"/> <rect x="50" y="26" fill="#1b5eb2" width="4" height="16"/> <path fill="#1b5eb2" d="M60,0H4C1.789,0,0,1.789,0,4v56c0,2.211,1.789,4,4,4h56c2.211,0,4-1.789,4-4V4C64,1.789,62.211,0,60,0z M16,56H8V25c0-0.553,0.447-1,1-1h6c0.553,0,1,0.447,1,1V56z M26,56h-8V17c0-0.553,0.447-1,1-1h6c0.553,0,1,0.447,1,1V56z M36,56 h-8V9c0-0.553,0.447-1,1-1h6c0.553,0,1,0.447,1,1V56z M46,56h-8V33c0-0.553,0.447-1,1-1h6c0.553,0,1,0.447,1,1V56z M56,56h-8V25 c0-0.553,0.447-1,1-1h6c0.553,0,1,0.447,1,1V56z"/> <rect x="50" y="44" fill="#1b5eb2" width="4" height="10"/> <rect x="10" y="48" fill="#1b5eb2" width="4" height="6"/> <rect x="40" y="34" fill="#1b5eb2" width="4" height="12"/> </g> </g>
</svg>